<svg xmlns="http://www.w3.org/2000/svg" xmlns:xlink="http://www.w3.org/1999/xlink" width="2000" zoomAndPan="magnify" viewBox="0 0 1500 749.999995" height="1000" preserveAspectRatio="xMidYMid meet" version="1.0"><defs><g/></defs><g fill="#222222" fill-opacity="1"><g transform="translate(45.122863, 528.625083)"><g><path d="M 300.265625 -34.46875 C 300.265625 -26.945312 302.769531 -20.257812 307.78125 -14.40625 C 312.789062 -8.5625 318.847656 -5.015625 325.953125 -3.765625 L 325.953125 0 L 180.53125 0 L 180.53125 -3.765625 C 187.632812 -5.015625 193.691406 -8.5625 198.703125 -14.40625 C 203.722656 -20.257812 206.234375 -26.945312 206.234375 -34.46875 L 206.234375 -219.390625 C 206.234375 -230.253906 208.945312 -238.820312 214.375 -245.09375 C 219.8125 -251.363281 225.242188 -257.316406 230.671875 -262.953125 C 236.109375 -268.597656 238.828125 -275.179688 238.828125 -282.703125 C 238.828125 -289.804688 234.851562 -295.238281 226.90625 -299 C 218.96875 -302.757812 208.734375 -304.640625 196.203125 -304.640625 C 182.410156 -304.640625 170.082031 -302.863281 159.21875 -299.3125 C 148.351562 -295.757812 140.410156 -292.734375 135.390625 -290.234375 L 135.390625 -34.46875 C 135.390625 -26.945312 137.894531 -20.257812 142.90625 -14.40625 C 147.925781 -8.5625 153.988281 -5.015625 161.09375 -3.765625 L 161.09375 0 L 15.671875 0 L 15.671875 -3.765625 C 22.773438 -5.015625 28.832031 -8.5625 33.84375 -14.40625 C 38.863281 -20.257812 41.375 -26.945312 41.375 -34.46875 L 41.375 -257.625 C 41.375 -265.570312 38.863281 -272.363281 33.84375 -278 C 28.832031 -283.644531 22.773438 -287.09375 15.671875 -288.34375 L 15.671875 -292.109375 L 122.859375 -307.78125 C 123.273438 -307.78125 123.585938 -307.78125 123.796875 -307.78125 C 124.003906 -307.78125 124.316406 -307.78125 124.734375 -307.78125 C 131.835938 -307.78125 135.390625 -304.226562 135.390625 -297.125 L 135.390625 -294.609375 C 147.097656 -300.460938 160.160156 -305.164062 174.578125 -308.71875 C 188.992188 -312.269531 203.515625 -314.046875 218.140625 -314.046875 C 232.765625 -314.046875 246.34375 -311.222656 258.875 -305.578125 C 271.414062 -299.941406 281.445312 -290.957031 288.96875 -278.625 C 296.5 -266.300781 300.265625 -249.484375 300.265625 -228.171875 Z M 300.265625 -34.46875 "/></g></g></g><g fill="#222222" fill-opacity="1"><g transform="translate(319.664657, 528.625083)"><g><path d="M 164.859375 -314.046875 C 191.179688 -314.046875 215.101562 -306.941406 236.625 -292.734375 C 258.15625 -278.523438 275.394531 -259.40625 288.34375 -235.375 C 301.300781 -211.351562 307.78125 -184.710938 307.78125 -155.453125 C 307.78125 -126.203125 301.300781 -99.5625 288.34375 -75.53125 C 275.394531 -51.5 258.15625 -32.378906 236.625 -18.171875 C 215.101562 -3.960938 191.179688 3.140625 164.859375 3.140625 C 138.535156 3.140625 114.609375 -3.960938 93.078125 -18.171875 C 71.554688 -32.378906 54.316406 -51.5 41.359375 -75.53125 C 28.410156 -99.5625 21.9375 -126.203125 21.9375 -155.453125 C 21.9375 -184.710938 28.410156 -211.351562 41.359375 -235.375 C 54.316406 -259.40625 71.554688 -278.523438 93.078125 -292.734375 C 114.609375 -306.941406 138.535156 -314.046875 164.859375 -314.046875 Z M 164.859375 -0.625 C 197.035156 -0.625 213.125 -52.234375 213.125 -155.453125 C 213.125 -258.671875 197.035156 -310.28125 164.859375 -310.28125 C 132.265625 -310.28125 115.96875 -258.671875 115.96875 -155.453125 C 115.96875 -52.234375 132.265625 -0.625 164.859375 -0.625 Z M 164.859375 -0.625 "/></g></g></g><g fill="#222222" fill-opacity="1"><g transform="translate(582.296885, 528.625083)"><g><path d="M 169.25 -22.5625 C 176.351562 -22.5625 182.617188 -24.441406 188.046875 -28.203125 L 188.046875 -23.8125 C 180.523438 -18.382812 170.285156 -12.535156 157.328125 -6.265625 C 144.378906 0.00390625 129.128906 3.140625 111.578125 3.140625 C 92.359375 3.140625 75.851562 -3.753906 62.0625 -17.546875 C 48.269531 -31.335938 41.375 -47.847656 41.375 -67.078125 L 41.375 -304.015625 L 15.671875 -304.015625 L 15.671875 -307.78125 C 39.078125 -307.78125 60.910156 -312.898438 81.171875 -323.140625 C 101.441406 -333.378906 118.265625 -347.066406 131.640625 -364.203125 L 135.390625 -364.203125 L 135.390625 -307.78125 L 176.140625 -307.78125 L 176.140625 -304.015625 L 135.390625 -304.015625 L 135.390625 -56.421875 C 135.390625 -47.222656 138.734375 -39.28125 145.421875 -32.59375 C 152.109375 -25.90625 160.050781 -22.5625 169.25 -22.5625 Z M 169.25 -22.5625 "/></g></g></g><g fill="#222222" fill-opacity="1"><g transform="translate(712.670291, 528.625083)"><g><path d="M 135.390625 -427.5 L 135.390625 -34.46875 C 135.390625 -26.945312 137.894531 -20.257812 142.90625 -14.40625 C 147.925781 -8.5625 153.988281 -5.015625 161.09375 -3.765625 L 161.09375 0 L 15.671875 0 L 15.671875 -3.765625 C 22.773438 -5.015625 28.832031 -8.5625 33.84375 -14.40625 C 38.863281 -20.257812 41.375 -26.945312 41.375 -34.46875 L 41.375 -388.640625 C 41.375 -396.160156 38.863281 -402.847656 33.84375 -408.703125 C 28.832031 -414.554688 22.773438 -418.109375 15.671875 -419.359375 L 15.671875 -423.125 L 122.859375 -438.796875 C 123.273438 -438.796875 123.585938 -438.796875 123.796875 -438.796875 C 124.003906 -438.796875 124.316406 -438.796875 124.734375 -438.796875 C 131.835938 -438.796875 135.390625 -435.03125 135.390625 -427.5 Z M 135.390625 -427.5 "/></g></g></g><g fill="#222222" fill-opacity="1"><g transform="translate(822.358629, 528.625083)"><g><path d="M 300.265625 -47.015625 C 300.265625 -39.492188 302.769531 -32.804688 307.78125 -26.953125 C 312.789062 -21.097656 318.847656 -17.546875 325.953125 -16.296875 L 325.953125 -12.53125 L 218.765625 3.140625 L 216.890625 3.140625 C 213.960938 3.140625 211.453125 2.09375 209.359375 0 C 207.273438 -2.09375 206.234375 -4.597656 206.234375 -7.515625 L 206.234375 -16.921875 C 194.535156 -11.078125 181.472656 -6.269531 167.046875 -2.5 C 152.628906 1.257812 138.109375 3.140625 123.484375 3.140625 C 108.859375 3.140625 95.273438 0.316406 82.734375 -5.328125 C 70.203125 -10.972656 60.175781 -19.957031 52.65625 -32.28125 C 45.132812 -44.613281 41.375 -61.4375 41.375 -82.75 L 41.375 -257.625 C 41.375 -265.570312 38.863281 -272.363281 33.84375 -278 C 28.832031 -283.644531 22.773438 -287.09375 15.671875 -288.34375 L 15.671875 -292.109375 L 122.859375 -307.78125 L 124.734375 -307.78125 C 131.835938 -307.78125 135.390625 -304.226562 135.390625 -297.125 L 135.390625 -91.515625 C 135.390625 -81.066406 132.671875 -72.601562 127.234375 -66.125 C 121.804688 -59.65625 116.375 -53.703125 110.9375 -48.265625 C 105.507812 -42.835938 102.796875 -36.148438 102.796875 -28.203125 C 102.796875 -21.515625 106.867188 -16.1875 115.015625 -12.21875 C 123.171875 -8.25 133.304688 -6.265625 145.421875 -6.265625 C 161.304688 -6.265625 174.992188 -8.457031 186.484375 -12.84375 C 197.972656 -17.238281 204.554688 -19.851562 206.234375 -20.6875 L 206.234375 -257.625 C 206.234375 -265.570312 203.722656 -272.363281 198.703125 -278 C 193.691406 -283.644531 187.632812 -287.09375 180.53125 -288.34375 L 180.53125 -292.109375 L 287.71875 -307.78125 L 289.609375 -307.78125 C 296.710938 -307.78125 300.265625 -304.226562 300.265625 -297.125 Z M 300.265625 -47.015625 "/></g></g></g><g fill="#222222" fill-opacity="1"><g transform="translate(1096.900443, 528.625083)"><g><path d="M 215.640625 -218.140625 C 221.066406 -213.960938 226.703125 -205.8125 232.546875 -193.6875 C 238.398438 -181.570312 244.359375 -167.257812 250.421875 -150.75 C 256.484375 -134.25 262.753906 -117.429688 269.234375 -100.296875 C 275.710938 -83.160156 282.503906 -67.175781 289.609375 -52.34375 C 296.710938 -37.507812 304.234375 -25.910156 312.171875 -17.546875 C 320.523438 -8.359375 330.550781 -3.765625 342.25 -3.765625 L 342.25 0 L 228.171875 0 C 223.160156 0 218.5625 -1.878906 214.375 -5.640625 C 210.195312 -9.398438 205.8125 -15.878906 201.21875 -25.078125 C 195.78125 -36.359375 190.238281 -49.625 184.59375 -64.875 C 178.957031 -80.132812 173.316406 -95.390625 167.671875 -110.640625 C 162.035156 -125.890625 156.5 -139.363281 151.0625 -151.0625 C 145.632812 -162.769531 140.410156 -170.710938 135.390625 -174.890625 C 135.390625 -172.378906 135.390625 -165.0625 135.390625 -152.9375 C 135.390625 -140.820312 135.390625 -126.820312 135.390625 -110.9375 C 135.390625 -95.0625 135.390625 -80.125 135.390625 -66.125 C 135.390625 -52.125 135.390625 -41.570312 135.390625 -34.46875 C 135.390625 -26.945312 137.894531 -20.257812 142.90625 -14.40625 C 147.925781 -8.5625 153.988281 -5.015625 161.09375 -3.765625 L 161.09375 0 L 15.671875 0 L 15.671875 -3.765625 C 22.773438 -5.015625 28.832031 -8.5625 33.84375 -14.40625 C 38.863281 -20.257812 41.375 -26.945312 41.375 -34.46875 L 41.375 -388.640625 C 41.375 -396.160156 38.863281 -402.847656 33.84375 -408.703125 C 28.832031 -414.554688 22.773438 -418.109375 15.671875 -419.359375 L 15.671875 -423.125 L 122.859375 -438.796875 C 123.273438 -438.796875 123.585938 -438.796875 123.796875 -438.796875 C 124.003906 -438.796875 124.316406 -438.796875 124.734375 -438.796875 C 131.835938 -438.796875 135.390625 -435.03125 135.390625 -427.5 C 135.390625 -371.925781 135.390625 -322.929688 135.390625 -280.515625 C 135.390625 -238.097656 135.390625 -204.144531 135.390625 -178.65625 C 145.421875 -178.65625 156.597656 -182.207031 168.921875 -189.3125 C 181.253906 -196.414062 193.0625 -204.5625 204.34375 -213.75 C 215.632812 -222.945312 224.625 -230.679688 231.3125 -236.953125 C 239.664062 -245.304688 243.84375 -254.914062 243.84375 -265.78125 C 243.84375 -275.8125 240.5 -284.484375 233.8125 -291.796875 C 227.125 -299.109375 218.972656 -303.179688 209.359375 -304.015625 L 209.359375 -307.78125 L 342.25 -307.78125 C 342.25 -307.78125 342.25 -307.359375 342.25 -306.515625 C 342.25 -305.679688 342.25 -304.847656 342.25 -304.015625 C 327.207031 -302.765625 312.582031 -297.4375 298.375 -288.03125 C 284.164062 -278.632812 270.269531 -267.5625 256.6875 -254.8125 C 243.101562 -242.0625 229.421875 -229.835938 215.640625 -218.140625 Z M 215.640625 -218.140625 "/></g></g></g></svg>